<svg width="378" height="378" viewBox="0 0 378 378" fill="none" xmlns="http://www.w3.org/2000/svg">
<path d="M94.5 0C81.5062 0 70.875 10.6312 70.875 23.625V354.375C70.875 367.369 81.5062 378 94.5 378H330.75C343.744 378 354.375 367.369 354.375 354.375V94.5L259.875 0H94.5Z" fill="#E2E5E7"/>
<path d="M283.5 94.5H354.375L259.875 0V70.875C259.875 83.8688 270.506 94.5 283.5 94.5Z" fill="#B0B7BD"/>
<path d="M354.375 165.375L283.5 94.5H354.375V165.375Z" fill="#CAD1D8"/>
<path d="M307.125 307.125C307.125 313.622 301.809 318.937 295.312 318.937H35.4375C28.9406 318.937 23.625 313.622 23.625 307.125V189C23.625 182.503 28.9406 177.188 35.4375 177.188H295.312C301.809 177.188 307.125 182.503 307.125 189V307.125Z" fill="#446BCF"/>
<path d="M295.312 318.938H70.875V330.75H295.312C301.809 330.75 307.125 325.434 307.125 318.938V307.125C307.125 313.622 301.809 318.938 295.312 318.938Z" fill="#CAD1D8"/>
<path d="M77.0671 278C75.0966 278 73.5928 277.39 72.5557 276.17C71.5186 274.95 71 273.237 71 271.029V221.971C71 219.763 71.5186 218.05 72.5557 216.83C73.5928 215.61 75.0966 215 77.0671 215C78.9858 215 80.4637 215.61 81.5008 216.83C82.5379 218.05 83.0564 219.763 83.0564 221.971V240.444H108.569V221.971C108.569 219.763 109.088 218.05 110.125 216.83C111.162 215.61 112.64 215 114.559 215C116.529 215 118.033 215.61 119.07 216.83C120.107 218.05 120.626 219.763 120.626 221.971V271.029C120.626 273.237 120.107 274.95 119.07 276.17C118.033 277.39 116.529 278 114.559 278C112.64 278 111.162 277.39 110.125 276.17C109.088 274.95 108.569 273.237 108.569 271.029V251.685H83.0564V271.029C83.0564 273.237 82.5379 274.95 81.5008 276.17C80.5155 277.39 79.0376 278 77.0671 278Z" fill="white"/>
<path d="M151.994 278C150.334 278 148.986 277.564 147.949 276.693C146.912 275.763 146.082 274.369 145.46 272.51L129.748 223.017C129.074 220.809 129.203 218.921 130.137 217.353C131.122 215.784 132.807 215 135.193 215C136.852 215 138.122 215.436 139.004 216.307C139.937 217.178 140.689 218.544 141.26 220.402L154.094 263.187H150.749L164.284 220.49C164.906 218.631 165.658 217.266 166.539 216.394C167.473 215.465 168.691 215 170.195 215C171.647 215 172.814 215.465 173.695 216.394C174.577 217.266 175.329 218.66 175.951 220.577L188.863 263.187H185.985L199.053 220.402C199.571 218.602 200.297 217.266 201.231 216.394C202.164 215.465 203.435 215 205.042 215C207.065 215 208.542 215.784 209.476 217.353C210.409 218.921 210.513 220.809 209.787 223.017L193.919 272.598C193.349 274.398 192.571 275.763 191.586 276.693C190.6 277.564 189.252 278 187.541 278C185.882 278 184.559 277.564 183.574 276.693C182.589 275.763 181.785 274.369 181.163 272.51L168.873 233.56H170.74L158.294 272.598C157.672 274.398 156.868 275.763 155.883 276.693C154.95 277.564 153.653 278 151.994 278Z" fill="white"/>
<path d="M224.886 278C222.916 278 221.412 277.39 220.375 276.17C219.338 274.95 218.819 273.237 218.819 271.029V222.668C218.819 220.402 219.338 218.689 220.375 217.527C221.464 216.365 222.993 215.784 224.964 215.784H243.865C249.984 215.784 254.703 217.527 258.022 221.012C261.341 224.44 263 229.232 263 235.39C263 241.548 261.341 246.369 258.022 249.855C254.703 253.34 249.984 255.083 243.865 255.083H230.875V271.029C230.875 273.237 230.357 274.95 229.32 276.17C228.334 277.39 226.857 278 224.886 278ZM230.875 244.627H241.843C244.954 244.627 247.314 243.842 248.921 242.274C250.581 240.705 251.41 238.411 251.41 235.39C251.41 232.369 250.581 230.104 248.921 228.593C247.314 227.083 244.954 226.328 241.843 226.328H230.875V244.627Z" fill="white"/>
</svg>
