<svg viewBox="0 0 120 24" fill="none" xmlns="http://www.w3.org/2000/svg">
<path d="M0.592773 23V1.99414H6.65723C14.4014 1.99414 18.2734 5.40723 18.2734 12.2334C18.2734 15.4756 17.1992 18.083 15.0508 20.0557C12.9023 22.0186 10.0215 23 6.4082 23H0.592773ZM4.06445 4.95312V20.0557H6.84766C9.29883 20.0557 11.2031 19.3818 12.5605 18.0342C13.9277 16.6865 14.6113 14.7822 14.6113 12.3213C14.6113 7.40918 12.0674 4.95312 6.97949 4.95312H4.06445ZM28.1455 23.3516C25.8311 23.3516 23.9805 22.6533 22.5938 21.2568C21.2168 19.8506 20.5283 17.9902 20.5283 15.6758C20.5283 13.1562 21.2461 11.1885 22.6816 9.77246C24.127 8.35645 26.0703 7.64844 28.5117 7.64844C30.8555 7.64844 32.6816 8.33691 33.9902 9.71387C35.2988 11.0908 35.9531 13 35.9531 15.4414C35.9531 17.834 35.2451 19.7529 33.8291 21.1982C32.4229 22.6338 30.5283 23.3516 28.1455 23.3516ZM28.3066 10.3584C26.9785 10.3584 25.9287 10.8223 25.1572 11.75C24.3857 12.6777 24 13.957 24 15.5879C24 17.1602 24.3906 18.4004 25.1719 19.3086C25.9531 20.207 26.998 20.6562 28.3066 20.6562C29.6445 20.6562 30.6699 20.2119 31.3828 19.3232C32.1055 18.4346 32.4668 17.1699 32.4668 15.5293C32.4668 13.8789 32.1055 12.6045 31.3828 11.7061C30.6699 10.8076 29.6445 10.3584 28.3066 10.3584ZM49.9121 22.3115C48.7109 23.0049 47.29 23.3516 45.6494 23.3516C43.4229 23.3516 41.626 22.6582 40.2588 21.2715C38.8916 19.875 38.208 18.0684 38.208 15.8516C38.208 13.3809 38.9404 11.3984 40.4053 9.9043C41.8799 8.40039 43.8477 7.64844 46.3086 7.64844C47.6758 7.64844 48.8818 7.8877 49.9268 8.36621V11.5303C48.8818 10.749 47.7686 10.3584 46.5869 10.3584C45.1514 10.3584 43.9746 10.8467 43.0566 11.8232C42.1387 12.79 41.6797 14.0596 41.6797 15.6318C41.6797 17.1846 42.1094 18.4102 42.9688 19.3086C43.8379 20.207 45 20.6562 46.4551 20.6562C47.6758 20.6562 48.8281 20.2217 49.9121 19.3525V22.3115ZM52.1084 22.5312V19.3818C53.3779 20.3486 54.7793 20.832 56.3125 20.832C58.3633 20.832 59.3887 20.2266 59.3887 19.0156C59.3887 18.6738 59.3008 18.3857 59.125 18.1514C58.9492 17.9072 58.71 17.6924 58.4072 17.5068C58.1143 17.3213 57.7627 17.1553 57.3525 17.0088C56.9521 16.8623 56.5029 16.6963 56.0049 16.5107C55.3896 16.2666 54.833 16.0078 54.335 15.7344C53.8467 15.4609 53.4365 15.1533 53.1045 14.8115C52.7822 14.46 52.5381 14.0645 52.3721 13.625C52.2061 13.1855 52.123 12.6729 52.123 12.0869C52.123 11.3643 52.2939 10.7295 52.6357 10.1826C52.9775 9.62598 53.4365 9.16211 54.0127 8.79102C54.5889 8.41016 55.2432 8.12695 55.9756 7.94141C56.708 7.74609 57.4648 7.64844 58.2461 7.64844C59.6328 7.64844 60.873 7.8584 61.9668 8.27832V11.252C60.9121 10.5293 59.7012 10.168 58.334 10.168C57.9043 10.168 57.5137 10.2119 57.1621 10.2998C56.8203 10.3877 56.5273 10.5098 56.2832 10.666C56.0391 10.8223 55.8486 11.0127 55.7119 11.2373C55.5752 11.4521 55.5068 11.6914 55.5068 11.9551C55.5068 12.2773 55.5752 12.5508 55.7119 12.7754C55.8486 13 56.0488 13.2002 56.3125 13.376C56.5859 13.542 56.9082 13.6982 57.2793 13.8447C57.6602 13.9814 58.0947 14.1328 58.583 14.2988C59.2275 14.5625 59.8037 14.8311 60.3115 15.1045C60.8291 15.3779 61.2686 15.6904 61.6299 16.042C61.9912 16.3838 62.2695 16.7842 62.4648 17.2432C62.6602 17.6924 62.7578 18.2295 62.7578 18.8545C62.7578 19.6162 62.582 20.2803 62.2305 20.8467C61.8789 21.4131 61.4102 21.8818 60.8242 22.2529C60.2383 22.624 59.5596 22.8975 58.7881 23.0732C58.0264 23.2588 57.2207 23.3516 56.3711 23.3516C54.7305 23.3516 53.3096 23.0781 52.1084 22.5312ZM83.001 23H79.5V13.8887H69.6123V23H66.126V1.99414H69.6123V10.8271H79.5V1.99414H83.001V23ZM100.637 23H97.2383V20.627H97.1797C96.1934 22.4434 94.6602 23.3516 92.5801 23.3516C89.0352 23.3516 87.2627 21.2227 87.2627 16.9648V8H90.6611V16.6133C90.6611 19.3086 91.7012 20.6562 93.7812 20.6562C94.7871 20.6562 95.6123 20.2852 96.2568 19.543C96.9111 18.8008 97.2383 17.8291 97.2383 16.6279V8H100.637V23ZM108.282 20.832H108.224V23H104.825V0.792969H108.224V10.6367H108.282C109.444 8.64453 111.144 7.64844 113.38 7.64844C115.274 7.64844 116.754 8.32227 117.818 9.66992C118.893 11.0078 119.43 12.8047 119.43 15.0605C119.43 17.5703 118.829 19.582 117.628 21.0957C116.427 22.5996 114.786 23.3516 112.706 23.3516C110.753 23.3516 109.278 22.5117 108.282 20.832ZM108.194 14.8701V16.7305C108.194 17.8242 108.541 18.752 109.234 19.5137C109.938 20.2754 110.826 20.6562 111.9 20.6562C113.16 20.6562 114.146 20.168 114.859 19.1914C115.582 18.2051 115.943 16.833 115.943 15.0752C115.943 13.6006 115.606 12.4482 114.933 11.6182C114.269 10.7783 113.365 10.3584 112.223 10.3584C111.012 10.3584 110.035 10.7881 109.293 11.6475C108.561 12.5068 108.194 13.5811 108.194 14.8701Z" fill="#4A90E2"/>
</svg>
